<?xml version="1.0" encoding="utf-8"?>
<!-- Generator: Adobe Illustrator 21.1.0, SVG Export Plug-In . SVG Version: 6.00 Build 0)  -->
<svg version="1.1" id="Layer_1" xmlns="http://www.w3.org/2000/svg" xmlns:xlink="http://www.w3.org/1999/xlink" x="0px" y="0px"
	 viewBox="0 0 389.3 100" style="enable-background:new 0 0 389.3 100;" xml:space="preserve">
<style type="text/css">
	.st0{fill:#FFFFFF;}
</style>
<title>IPT-Fut</title>
<path class="st0" d="M99,71.9l-3.6-14.6l10-8.8H92.5l-4.3-14.7l-4.4,14.7H70.7l10.2,8.8l-3.6,14.6l10.9-8.7L99,71.9z"/>
<path class="st0" d="M18.9,23.2H66v12.4H50.2v37.7H34.7V35.6H18.9V23.2z"/>
<path class="st0" d="M116.1,48.3c0-5.8,1.3-26,25-26s23.7,20.2,23.7,20.2h-14.2c0,0-0.1-7.3-9.6-7.3s-9.5,7.3-9.5,13.1s0,13,9.5,13
	s9.5-7.2,9.5-7.2h14.3c0,0,0,20.2-23.7,20.2S116.1,54,116.1,48.3z"/>
<path class="st0" d="M169.4,48.3c0-5.8,1.3-26,25-26s23.7,20.2,23.7,20.2h-14.2c0,0-0.1-7.3-9.6-7.3s-9.5,7.3-9.5,13.1s0,13,9.5,13
	s9.5-7.2,9.5-7.2h14.3c0,0,0,20.2-23.7,20.2S169.4,54,169.4,48.3z"/>
<polygon class="st0" points="60.8,73.3 74.8,73.3 78.3,58.1 68.6,49.7 "/>
<polygon class="st0" points="115.4,73.3 101.4,73.3 97.8,58.1 107.5,49.7 "/>
<polygon class="st0" points="69.8,46.3 82.1,46.3 88.1,26.1 94,46.3 106.4,46.3 98.7,23.2 77.4,23.2 "/>
<rect x="242.9" y="7.6" class="st0" width="1.8" height="81.3"/>
<path class="st0" d="M280.2,23.2v55.4h-8.4V23.2H280.2z"/>
<path class="st0" d="M306.3,56.1v22.5H298V23.2h9.5c3.5-0.1,7.1,0.2,10.5,1c2.4,0.6,4.6,1.9,6.4,3.7c3.2,3.1,4.9,7.3,4.8,11.8
	c0.2,4.6-1.8,9-5.2,12c-3.4,3-8,4.5-13.7,4.5L306.3,56.1z M306.3,48.4h3.2c7.7,0,11.5-3,11.5-8.9c0-5.7-4-8.6-11.9-8.6h-2.8V48.4z"
	/>
<path class="st0" d="M357.3,31.1v47.5H349V31.1h-12.8v-7.8H370v7.9L357.3,31.1z"/>
</svg>
